<?xml version="1.0" encoding="UTF-8"?>
<svg xmlns="http://www.w3.org/2000/svg" xmlns:xlink="http://www.w3.org/1999/xlink" width="19px" height="30px" viewBox="0 0 19 30" version="1.1">
<g id="surface1">
<path style=" stroke:none;fill-rule:nonzero;fill:#49321B;fill-opacity:1;" d="M 18.441406 21.175781 C 19.183594 21.90625 19.183594 23.09375 18.441406 23.828125 C 18.074219 24.195312 17.585938 24.375 17.101562 24.375 C 16.613281 24.375 16.128906 24.191406 15.757812 23.824219 L 9.5 17.65625 L 3.242188 23.824219 C 2.871094 24.195312 2.386719 24.375 1.898438 24.375 C 1.414062 24.375 0.929688 24.195312 0.558594 23.824219 C -0.183594 23.09375 -0.183594 21.90625 0.558594 21.171875 L 6.816406 14.996094 L 0.558594 8.824219 C -0.183594 8.09375 -0.183594 6.90625 0.558594 6.171875 C 1.296875 5.441406 2.5 5.441406 3.242188 6.171875 L 9.5 12.351562 L 15.757812 6.175781 C 16.5 5.445312 17.703125 5.445312 18.445312 6.175781 C 19.1875 6.90625 19.1875 8.09375 18.445312 8.828125 L 12.1875 15.003906 Z M 18.441406 21.175781 "/>
</g>
</svg>
