<svg width="79" height="79" viewBox="0 0 79 79" fill="none" xmlns="http://www.w3.org/2000/svg">
<path d="M2 47.8333C5.45833 50.5083 10.6542 52.0708 16.5833 52C22.5125 52.0708 27.7083 50.5083 31.1667 47.8333C34.625 45.1583 39.8208 43.5958 45.75 43.6667C51.6792 43.5958 56.875 45.1583 60.3333 47.8333" stroke="#49321B" stroke-width="2.5" stroke-linecap="round" stroke-linejoin="round"/>
<path d="M22.8334 2C21.5147 2.94654 20.4462 4.19988 19.7203 5.65177C18.9943 7.10365 18.6327 8.71043 18.6667 10.3333C18.6327 11.9562 18.9943 13.563 19.7203 15.0149C20.4462 16.4668 21.5147 17.7201 22.8334 18.6667" stroke="#49321B" stroke-width="2.5" stroke-linecap="round" stroke-linejoin="round"/>
<path d="M39.5002 2C38.1814 2.94654 37.113 4.19988 36.387 5.65177C35.6611 7.10365 35.2995 8.71043 35.3335 10.3333C35.2995 11.9562 35.6611 13.563 36.387 15.0149C37.113 16.4668 38.1814 17.7201 39.5002 18.6667" stroke="#49321B" stroke-width="2.5" stroke-linecap="round" stroke-linejoin="round"/>
<path d="M2 31.1667H60.3333V52C60.3333 58.6304 57.6994 64.9893 53.011 69.6777C48.3226 74.3661 41.9637 77 35.3333 77H27C20.3696 77 14.0107 74.3661 9.32233 69.6777C4.63392 64.9893 2 58.6304 2 52V31.1667Z" stroke="#49321B" stroke-width="2.5" stroke-linecap="round" stroke-linejoin="round"/>
<path d="M59.2753 59.1917C61.1361 60.0459 63.1783 60.43 65.2223 60.3101C67.2663 60.1902 69.2496 59.57 70.9978 58.5041C72.746 57.4382 74.2055 55.9591 75.2482 54.1969C76.2909 52.4348 76.8847 50.4435 76.9775 48.398C77.0703 46.3526 76.6592 44.3157 75.7804 42.4664C74.9015 40.617 73.5819 39.0119 71.9374 37.792C70.2929 36.5722 68.3739 35.775 66.3491 35.4705C64.3244 35.166 62.2558 35.3636 60.3253 36.0459" stroke="#49321B" stroke-width="2.5" stroke-linecap="round" stroke-linejoin="round"/>
</svg>
