<svg width="80" height="74" viewBox="0 0 80 74" fill="none" xmlns="http://www.w3.org/2000/svg">
<path d="M73.6091 65.2389H49.8019C53.1706 63.8402 56.2395 61.8613 58.8836 59.4269H63.4595C72.58 59.4269 80 52.0069 80 42.8863C80 38.033 76.0516 34.0846 71.1984 34.0846H68.8545V29.7288C68.8545 28.0911 67.5222 26.7588 65.8845 26.7588H10.1417C8.50406 26.7588 7.17172 28.0911 7.17172 29.7288V34.9271C7.17172 35.5743 7.69641 36.0989 8.34359 36.0989C8.99078 36.0989 9.51547 35.5743 9.51547 34.9271V29.7288C9.51547 29.3835 9.79641 29.1025 10.1417 29.1025H24.0769V34.4644C23.7578 34.6074 23.4636 34.8072 23.21 35.0632L18.8109 39.5038C18.2752 40.0447 17.98 40.7621 17.98 41.5235V51.3208C17.98 52.9032 19.2673 54.1905 20.8497 54.1905H29.6478C31.2302 54.1905 32.5177 52.9032 32.5177 51.3208V41.5235C32.5177 40.7619 32.2225 40.0447 31.6866 39.5038L27.2877 35.0633C27.0341 34.8072 26.7397 34.6074 26.4208 34.4644V29.1025H65.8847C66.23 29.1025 66.5109 29.3835 66.5109 29.7288V36.7371V36.7469C66.5081 52.4166 53.7617 65.2389 38.0133 65.2389C23.6336 65.2389 11.4739 54.4932 9.72875 40.2432C9.65016 39.6008 9.06578 39.143 8.42313 39.2224C7.78078 39.301 7.32375 39.8857 7.40234 40.528C8.78641 51.8293 16.2219 61.0935 26.2194 65.2389H2.41719C1.08438 65.2389 0 66.3233 0 67.6561C0 71.0491 2.76031 73.8094 6.15328 73.8094H56.4658C57.113 73.8094 57.6377 73.2847 57.6377 72.6375C57.6377 71.9903 57.113 71.4657 56.4658 71.4657H6.15328C4.05266 71.4657 2.34375 69.7568 2.34375 67.6561C2.34375 67.6157 2.37672 67.5827 2.41719 67.5827H73.6091C73.6495 67.5827 73.6825 67.6157 73.6825 67.6561C73.6825 69.7568 71.9736 71.4657 69.873 71.4657H61.9344C61.2872 71.4657 60.7625 71.9903 60.7625 72.6375C60.7625 73.2847 61.2872 73.8094 61.9344 73.8094H69.873C73.2659 73.8094 76.0262 71.0491 76.0262 67.6561C76.0262 66.3232 74.9419 65.2389 73.6091 65.2389ZM30.0214 41.1532C30.1197 41.2524 30.1737 41.3838 30.1737 41.5235V51.3208C30.1737 51.6108 29.9378 51.8468 29.6477 51.8468H20.8495C20.5595 51.8468 20.3236 51.6108 20.3236 51.3208V41.5235C20.3236 41.3838 20.3777 41.2524 20.4759 41.1532L24.0767 37.5183V40.8518C24.0767 41.4989 24.6014 42.0236 25.2486 42.0236C25.8958 42.0236 26.4205 41.4989 26.4205 40.8518V37.5183L30.0214 41.1532ZM68.6141 40.5958H71.1984C72.4614 40.5958 73.4888 41.6233 73.4888 42.8861C73.4888 48.1382 69.43 52.4571 64.285 52.8786C66.5417 49.2183 68.0558 45.0538 68.6141 40.5958ZM68.8555 36.4283H71.1984C74.7594 36.4283 77.6562 39.3254 77.6562 42.8863C77.6562 50.7144 71.2877 57.0832 63.4595 57.0832H61.1938C61.7108 56.4941 62.2056 55.8854 62.6764 55.2594H63.4595C70.282 55.2594 75.8327 49.7089 75.8327 42.8863C75.8327 40.331 73.7537 38.2522 71.1986 38.2522H68.8175C68.8467 37.6466 68.8547 37.0347 68.8555 36.4283Z" fill="#743E24"/>
<path d="M36.4697 23.6522C37.109 23.6522 37.6273 23.134 37.6273 22.4946C37.6273 19.6255 40.7143 19.434 40.7143 15.4465C40.7143 11.455 37.6273 11.2729 37.6273 8.39739C37.6273 5.53114 40.7143 5.33349 40.7143 1.34833C40.7143 0.708955 40.1961 0.190674 39.5567 0.190674C38.9173 0.190674 38.399 0.708955 38.399 1.34833C38.399 4.21755 35.312 4.40958 35.312 8.39739C35.312 12.3893 38.399 12.5707 38.399 15.4465C38.399 18.3154 35.312 18.5072 35.312 22.4946C35.312 23.134 35.8303 23.6522 36.4697 23.6522Z" fill="#743E24"/>
<path d="M45.2204 23.6522C45.8598 23.6522 46.3781 23.134 46.3781 22.4946C46.3781 19.6255 49.4651 19.434 49.4651 15.4465C49.4651 11.455 46.3781 11.2729 46.3781 8.39739C46.3781 5.53114 49.4651 5.33349 49.4651 1.34833C49.4651 0.708955 48.9468 0.190674 48.3074 0.190674C47.6681 0.190674 47.1498 0.708955 47.1498 1.34833C47.1498 4.21755 44.0627 4.40958 44.0627 8.39739C44.0627 12.3893 47.1498 12.5707 47.1498 15.4465C47.1498 18.3154 44.0627 18.5072 44.0627 22.4946C44.0627 23.134 44.581 23.6522 45.2204 23.6522Z" fill="#743E24"/>
<path d="M27.7192 23.6522C28.3586 23.6522 28.8768 23.134 28.8768 22.4946C28.8768 19.6255 31.9639 19.434 31.9639 15.4465C31.9639 11.455 28.8768 11.2729 28.8768 8.39739C28.8768 5.53114 31.9639 5.33349 31.9639 1.34833C31.9639 0.708955 31.4456 0.190674 30.8062 0.190674C30.1668 0.190674 29.6486 0.708955 29.6486 1.34833C29.6486 4.21755 26.5615 4.40958 26.5615 8.39739C26.5615 12.3893 29.6486 12.5707 29.6486 15.4465C29.6486 18.3154 26.5615 18.5072 26.5615 22.4946C26.5615 23.134 27.0798 23.6522 27.7192 23.6522Z" fill="#743E24"/>
</svg>
