<svg width="56" height="80" viewBox="0 0 56 80" fill="none" xmlns="http://www.w3.org/2000/svg">
<path d="M55.0213 21.3836L54.5813 19.1636C54.1847 17.1702 53.288 15.2868 51.2446 14.5668C50.5879 14.3368 49.8446 14.2401 49.3446 13.7635C48.8379 13.2868 48.6912 12.5434 48.5746 11.8568C48.3579 10.5967 48.1579 9.33671 47.9345 8.08002C47.7445 6.99667 47.5945 5.77998 47.1012 4.78996C46.4512 3.4566 45.1112 2.67659 43.7811 2.16324C43.0985 1.908 42.4018 1.69209 41.6944 1.51657C38.361 0.639882 34.861 0.316542 31.4376 0.129872C27.3267 -0.0961528 23.205 -0.0270854 19.104 0.336543C16.0539 0.613215 12.8372 0.949888 9.93716 2.00324C8.87714 2.38991 7.78378 2.85659 6.9771 3.67327C5.98708 4.67996 5.66708 6.23999 6.38709 7.49334C6.90043 8.38336 7.77045 9.01337 8.6938 9.42671C9.89382 9.96673 11.1505 10.3734 12.4372 10.6467C16.0206 11.4401 19.734 11.7501 23.3941 11.8801C27.4542 12.0468 31.5176 11.9134 35.561 11.4868C36.5577 11.3768 37.5543 11.2434 38.5477 11.0901C39.7211 10.9101 40.4744 9.38005 40.1277 8.31003C39.7144 7.03334 38.6044 6.53999 37.3477 6.73333C35.7943 6.98 34.1476 7.09334 32.7409 7.22001C28.8175 7.48668 24.8808 7.49334 20.954 7.24001C19.6656 7.15474 18.3795 7.03581 17.0973 6.88333C16.8106 6.85 16.4973 6.8 16.2373 6.76333C15.4273 6.64333 14.6239 6.49666 13.8239 6.32999C13.4539 6.23999 13.4539 5.71331 13.8239 5.62331H13.8406C14.7639 5.42331 15.6973 5.2633 16.634 5.1333H16.6406C17.0773 5.1033 17.5173 5.02663 17.954 4.9733C21.7471 4.57961 25.5628 4.44596 29.3742 4.57329C31.6209 4.63662 33.8643 4.79663 36.0977 5.0533L36.8577 5.15663C37.7477 5.28997 38.6344 5.44997 39.5177 5.63998C40.8244 5.92332 42.5011 6.01665 43.0844 7.44668C43.2678 7.90335 43.3511 8.4067 43.4545 8.88337L44.5178 13.8301C44.5404 13.9362 44.5408 14.0458 44.5192 14.152C44.4976 14.2583 44.4543 14.359 44.3921 14.4478C44.3298 14.5366 44.25 14.6116 44.1575 14.6682C44.065 14.7248 43.9619 14.7618 43.8545 14.7768H43.8445C43.7211 14.7968 43.5945 14.8102 43.4711 14.8268C38.2278 15.4958 32.9466 15.8243 27.6608 15.8102C22.4234 15.8048 17.1916 15.4663 11.9972 14.7968C11.5305 14.7401 11.0205 14.6568 10.6072 14.5968C9.52048 14.4368 8.4438 14.2368 7.36378 14.0601C6.05375 13.8435 4.80373 13.9535 3.62037 14.5968C2.65369 15.1302 1.86367 15.9435 1.37033 16.9335C0.856987 17.9869 0.706985 19.1336 0.480314 20.2669C0.25031 21.4003 -0.106363 22.6236 0.0303059 23.787C0.320311 26.297 2.07368 28.3371 4.59706 28.7937C17.0755 31.0207 29.8092 31.4428 42.4078 30.0471C42.6471 30.0199 42.8895 30.0467 43.1171 30.1256C43.3448 30.2045 43.5518 30.3335 43.7229 30.503C43.894 30.6726 44.025 30.8783 44.106 31.1052C44.187 31.3321 44.2161 31.5742 44.1911 31.8138L43.9545 34.1372L40.5611 67.1611C40.4244 68.5278 40.4044 69.9345 40.1444 71.2846C39.7377 73.4079 38.301 74.7113 36.2043 75.188C34.281 75.6246 32.3209 75.8546 30.3509 75.8713C28.1642 75.8846 25.9841 75.788 23.7974 75.798C21.4674 75.8113 18.6107 75.598 16.814 73.8646C15.2306 72.3379 15.0139 69.9512 14.7973 67.8878L12.3605 44.5107L11.2872 34.1972C11.1638 33.0272 10.3338 31.8805 9.02714 31.9371C7.90712 31.9871 6.63376 32.9372 6.7671 34.2005L7.52711 41.484L10.6905 71.8579C11.1805 76.338 14.6039 78.7514 18.844 79.4314C21.3174 79.8314 23.8541 79.9114 26.3675 79.9514C29.5875 80.0047 32.8409 80.1281 36.0077 79.5447C40.7011 78.6847 44.2245 75.5513 44.7278 70.6879C45.8612 59.581 47.0045 48.4775 48.1412 37.3706L48.8579 30.4138C48.8932 30.0688 49.0387 29.7444 49.2729 29.4886C49.507 29.2328 49.8174 29.0593 50.1579 28.9938C51.4979 28.7337 52.7813 28.2871 53.738 27.2671C55.2547 25.6404 55.558 23.5203 55.0213 21.3803V21.3836ZM50.0946 23.957C49.6112 24.4137 48.8846 24.627 48.1679 24.7337C40.1144 25.9304 31.9476 26.5337 23.8074 26.267C17.9806 26.067 12.2172 25.4204 6.45043 24.607C5.88375 24.527 5.27374 24.4237 4.88373 24.007C4.15038 23.2203 4.51372 21.6403 4.70373 20.6903C4.87706 19.8236 5.2104 18.6602 6.24709 18.5369C7.86045 18.3469 9.73382 19.0302 11.3339 19.2702C13.2572 19.5636 15.1873 19.8002 17.124 19.9769C25.3908 20.7303 33.7976 20.6103 42.0311 19.5102C43.5311 19.3102 45.0278 19.0769 46.5145 18.8102C47.8445 18.5702 49.3146 18.1235 50.1146 19.4969C50.6679 20.4336 50.7413 21.6869 50.6546 22.7436C50.6283 23.2051 50.4268 23.6391 50.0912 23.957H50.0946ZM29.5642 36.9572C26.6908 38.1906 23.4307 39.584 19.2007 39.584C17.4327 39.5797 15.6734 39.3363 13.9706 38.8606L16.894 68.8745C17.1106 71.4746 19.284 73.4746 21.8941 73.4746C21.8941 73.4746 26.0375 73.6913 27.4208 73.6913C28.9109 73.6913 33.3743 73.4746 33.3743 73.4746C35.9843 73.4746 38.1544 71.4746 38.371 68.8745L41.5044 35.7072C40.0908 35.196 38.6008 34.9278 37.0977 34.9139C34.3443 34.9139 32.1276 35.8605 29.5642 36.9572Z" fill="#D17E08"/>
</svg>